<?xml version="1.0" encoding="UTF-8"?>
<svg width="3255px" height="1145px" viewBox="0 0 3255 1145" version="1.1" xmlns="http://www.w3.org/2000/svg" xmlns:xlink="http://www.w3.org/1999/xlink">
    <!-- Generator: Sketch 45.2 (43514) - http://www.bohemiancoding.com/sketch -->
    <title>Logo-darkfoils</title>
    <desc>Created with Sketch.</desc>
    <defs>
        <path d="M1928.54378,749.345187 C1920.25739,741.728508 1891,721.212454 1905.35292,713.666667 C1979.29089,713.666667 2022.06214,713.666667 2033.66667,713.666667 L2105,571 C2043.51023,571 1956.73218,571 1844.66585,571 C1730.77595,571 1647.25644,713.666667 1779.26137,818.065221 C1797.48593,825.531965 1815.53252,856.333333 1779.26137,856.333333 L1391.66667,856.333333 L1391.66667,571 L1249,571 L1249,999 L1876.35903,999 C1985.16909,999 2041.71443,826.866383 1928.54378,749.345187 Z" id="path-1"></path>
        <path d="M701.857143,356.666667 L676.857143,428 L534,428 L676.857143,0 L891.142857,0 L1034,428 L891.142857,428 L866.142857,356.666667 L701.857143,356.666667 Z M837,250 L783.5,107 L730,250 L837,250 Z" id="path-2"></path>
        <path d="M1247,178 L1247,107 L1369.82911,107 C1388.37281,109.962324 1397.50715,121.795658 1397.2321,142.5 C1396.95706,163.204342 1387.82272,175.037676 1369.82911,178 L1247,178 Z M1425.10714,428 C1373.16278,417.42384 1313.69849,376.244116 1246.71429,304.460826 L1246.71429,428 L1104,428 L1104,0 C1294.28571,0 1389.42857,0 1389.42857,0 C1568.38443,0 1592.41894,236.792614 1432.58107,261.592334 C1429.71439,266.467952 1456.5421,280.244739 1467.92143,283.832761 L1603.5,283.832761 L1603.5,0 L1746.21429,0 L1746.21429,178.333333 L1888.92857,6.68215483e-15 L2049.48214,0 L1871.08929,231.833333 L2103,428 L1888.92857,428 L1746.21429,321 L1746.21429,428 C1729.94989,428 1622.91418,428 1425.10714,428 Z" id="path-3"></path>
        <polygon id="path-4" points="71 999 71 678 0 678 71 571 453 571 453 678 214 678 214 749 357 749 357 856 214 856 214 999"></polygon>
        <path d="M214,321 L214,107 L325.225014,107 C363.226753,112.268158 382.227623,147.934824 382.227623,214 C382.227623,280.065176 363.226753,315.731842 325.225014,321 L214,321 Z M71,428 C230.864348,428 326.197682,428 357,428 C571.441846,428 572.122567,-1.04278192e-12 357,-5.68434189e-14 C327.230208,7.83175993e-14 231.896875,7.83175993e-14 71,-5.68434189e-14 L0,107 L71,107 L71,428 Z" id="path-5"></path>
        <polygon id="path-6" points="1019 571 1019 999 1162 999 1162 571"></polygon>
        <path d="M657,999 C728,999 728,999 799,999 C870.666667,999 942,927.859558 942,856 C942,785 942,785 942,714 C942,642.333333 870.666667,571 799,571 C728,571 728,571 657,571 C585.333333,571 514,642.333333 514,714 C514,785 514,785 514,856 C514,927.859558 585.333333,999 657,999 Z M735,892 C807,892 807,844.094468 807,785 C807,725.905532 807,678 735,678 C664,678 664,725.905532 664,785 C664,844.094468 664,892 735,892 Z" id="path-7"></path>
    </defs>
    <g id="Page-1" stroke="none" stroke-width="1" fill="none" fill-rule="evenodd">
        <path d="M364.792932,936.544901 C458.741236,880.62588 530.642555,812.136168 591.909496,722.549416 C403.019216,698.208107 255.404473,542.273303 244.045713,349.544901 C178.117491,425.553962 91.5743367,747.83656 364.792932,936.544901 Z M339.099971,344.241079 C339.099971,299.51237 347.479806,256.740369 362.755556,217.40861 C384.022262,162.651437 417.643821,115.776445 461.637572,78.3579725 C390.857525,94.4273725 326.059398,125.347444 270.385774,167.649392 C150.017609,259.107564 72.3008716,403.768985 72.3008716,566.577423 C72.3008716,843.138171 296.555709,1067.33495 573.18807,1067.33495 C734.061072,1066.9094 876.422712,992.04886 968.132201,875.482206 C877.583123,988.919116 624.299009,1067.33495 445.038399,978.178213 C545.955314,911.006389 613.570393,829.691334 672.583752,722.189084 C776.905826,712.857571 870.047945,663.945317 936.302195,590.357 C873.412227,651.706076 783.52574,681.331432 687.626911,681.331432 C771.112471,522.064504 788.717619,297.068926 749.370712,174.655324 C944.347118,223.123627 1072.30087,352.057953 1072.30087,562.614432 C1072.30087,316.243665 896.90553,129.119461 687.626911,78.3349546 C708.855039,148.35197 719.841868,220.823724 719.841868,296.610248 C719.841868,439.597203 693.668468,556.161797 624.299009,669.931099 C468.522568,633.75012 339.099971,510.753978 339.099971,344.241079 Z" id="StrongOriginal-+-words" stroke="#F8E71C" stroke-width="16" fill="#000000" transform="translate(572.300872, 572.963002) rotate(-50.000000) translate(-572.300872, -572.963002) "></path>
        <g id="Group-Copy" transform="translate(1131.000000, 73.000000)">
            <g id="Path-4">
                <use fill="#000000" fill-rule="evenodd" xlink:href="#path-1"></use>
                <path stroke="#F8E71C" stroke-width="20" d="M1934.71292,741.451304 C1990.37731,779.886312 2011.33995,843.817749 1995.3776,905.73927 C1979.88645,965.83294 1933.0233,1009 1876.35903,1009 L1239,1009 L1239,561 L1401.66667,561 L1401.66667,846.333333 L1779.26137,846.333333 C1782.78385,846.333333 1785.57656,845.991102 1787.62667,845.394083 C1789.01646,844.989356 1789.82541,844.551054 1790.19447,844.196136 C1790.24053,844.15184 1790.20256,844.221524 1790.2063,844.203102 C1790.26608,843.908785 1790.23569,843.344868 1790.02206,842.527258 C1788.6157,837.144698 1781.86764,829.939789 1775.47016,827.318688 L1774.16472,826.78384 L1773.05819,825.908724 C1740.01944,799.779415 1718.3179,770.00936 1708.24885,738.458435 C1698.91638,709.215562 1699.91786,679.276181 1710.4118,651.813684 C1730.93923,598.093713 1784.78472,561 1844.66585,561 L2121.18034,561 L2039.84701,723.666667 L1992.88484,723.666667 C1959.27314,723.666667 1957.06572,723.666667 1914.8686,723.666667 C1915.16771,724.004296 1915.48333,724.35069 1915.81512,724.705342 C1917.65579,726.672857 1919.91549,728.815807 1922.65003,731.218886 C1924.70688,733.026416 1932.187,739.247662 1934.71292,741.451304 Z"></path>
            </g>
            <g id="Path-5">
                <use fill="#000000" fill-rule="evenodd" xlink:href="#path-2"></use>
                <path stroke="#F8E71C" stroke-width="20" d="M708.948825,366.666667 L683.948825,438 L520.119883,438 L669.652593,-10 L898.347407,-10 L1047.88012,438 L884.051175,438 L859.051175,366.666667 L708.948825,366.666667 Z M822.581803,240 L783.5,135.538359 L744.418197,240 L822.581803,240 Z"></path>
            </g>
            <g id="Path-8">
                <use fill="#000000" fill-rule="evenodd" xlink:href="#path-3"></use>
                <path stroke="#F8E71C" stroke-width="20" d="M1257,168 L1368.96449,168 C1381.41022,165.694598 1387.02376,158.116974 1387.23298,142.367168 C1387.44042,126.752244 1381.91801,119.30318 1368.9931,117 L1257,117 L1257,168 Z M1459.47333,269.552745 C1463.17471,271.322138 1466.75724,272.848525 1469.54773,273.832761 L1593.5,273.832761 L1593.5,-10 L1756.21429,-10 L1756.21429,149.83295 L1884.12332,-10 L2069.79491,-10 L1884.83729,230.364674 L2130.3064,438 L1885.59613,438 L1756.21429,340.995996 L1756.21429,438 L1424.09945,438 L1423.11202,437.798954 C1373.36512,427.670209 1318.04092,391.431881 1256.71429,329.329101 L1256.71429,438 L1094,438 L1094,-10 L1389.42857,-10 C1434.32139,-10 1472.46563,4.24158194 1500.86083,29.9767313 C1526.82488,53.5084769 1543.31312,85.6693856 1547.96282,120.160263 C1552.57678,154.386057 1545.20028,188.619147 1526.71089,215.870607 C1510.1084,240.340988 1485.46843,258.050814 1454.41357,267.016362 L1459.47333,269.552745 Z"></path>
            </g>
            <g id="Path-8-Copy-2">
                <use fill="#000000" fill-rule="evenodd" xlink:href="#path-4"></use>
                <path stroke="#F8E71C" stroke-width="20" d="M61,688 L-18.6367659,688 L65.6342622,561 L463,561 L463,688 L224,688 L224,739 L357,739 L367,739 L367,866 L224,866 L224,1009 L61,1009 L61,688 Z"></path>
            </g>
            <g id="Path-10">
                <use fill="#000000" fill-rule="evenodd" xlink:href="#path-5"></use>
                <path stroke="#F8E71C" stroke-width="20" d="M224,311 L324.50589,311 C355.944039,306.25023 372.227623,275.263674 372.227623,214 C372.227623,152.736326 355.944039,121.74977 324.50589,117 L224,117 L224,311 Z M61,117 L-18.6367659,117 L65.6342622,-10 L357,-10 C411.377987,-10 455.767594,15.7809103 486.222879,61.3155071 C513.483806,102.074124 528.132029,156.94621 528.086651,214.007952 C528.041292,271.046498 513.31649,325.9221 486.02939,366.687537 C455.555021,412.214579 411.222093,438 357,438 L61,438 L61,117 Z"></path>
            </g>
            <g id="Path-14">
                <use fill="#000000" fill-rule="evenodd" xlink:href="#path-6"></use>
                <path stroke="#F8E71C" stroke-width="20" d="M1009,561 L1172,561 L1172,1009 L1009,1009 L1009,561 Z"></path>
            </g>
            <g id="Oval">
                <use fill="#000000" fill-rule="evenodd" xlink:href="#path-7"></use>
                <path stroke="#F8E71C" stroke-width="20" d="M657,1009 C579.748095,1009 504,933.320075 504,856 L504,714 C504,636.810486 579.810486,561 657,561 L799,561 C876.189514,561 952,636.810486 952,714 L952,856 C952,933.320075 876.251905,1009 799,1009 L657,1009 Z M735,882 C765.169368,882 780.985097,873.542303 788.93169,856.445481 C792.569511,848.618835 794.77912,838.680614 795.913394,825.773786 C796.819039,815.468504 797,806.505146 797,785 C797,763.494854 796.819039,754.531496 795.913394,744.226214 C794.77912,731.319386 792.569511,721.381165 788.93169,713.554519 C780.985097,696.457697 765.169368,688 735,688 C705.327597,688 689.795619,696.422942 681.965612,713.506201 C678.373402,721.34357 676.191646,731.294727 675.072034,744.214146 C674.178496,754.524873 674,763.490644 674,785 C674,806.509356 674.178496,815.475127 675.072034,825.785854 C676.191646,838.705273 678.373402,848.65643 681.965612,856.493799 C689.795619,873.577058 705.327597,882 735,882 Z"></path>
            </g>
        </g>
    </g>
</svg>