<?xml version="1.0" encoding="UTF-8"?>
<svg width="3255px" height="1145px" viewBox="0 0 3255 1145" version="1.1" xmlns="http://www.w3.org/2000/svg" xmlns:xlink="http://www.w3.org/1999/xlink">
    <!-- Generator: Sketch 45.2 (43514) - http://www.bohemiancoding.com/sketch -->
    <title>Logo-darkfoils</title>
    <desc>Created with Sketch.</desc>
    <defs>
        <path d="M364.68753,936.689749 C458.733809,880.728451 530.710112,812.186958 592.040946,722.532475 C402.953679,698.172762 255.184993,542.120065 243.814387,349.245953 C177.817411,425.31248 91.1840027,747.838736 364.68753,936.689749 Z M338.799983,344.309933 C338.799983,299.569642 347.179818,256.786565 362.455568,217.444622 C383.722274,162.67327 417.343833,115.78614 461.337585,78.3579784 C390.557537,94.4315396 325.75941,125.359618 270.085786,167.672519 C149.717621,259.154374 72.0008838,403.853253 72.0008838,566.70385 C72.0008838,843.336211 296.255721,1067.59105 572.888082,1067.59105 C733.761084,1067.16538 876.122724,992.285459 967.832213,875.688621 C877.283135,989.154905 623.999021,1067.59105 444.738412,978.41122 C545.655326,911.222003 613.270405,829.885892 672.283764,722.355805 C776.605838,713.021876 869.747958,664.096956 936.002207,590.489584 C873.112239,651.854546 783.225752,681.487573 687.326923,681.487573 C770.812484,522.179404 788.417632,297.125566 749.070724,174.680266 C944.04713,223.161119 1072.00088,352.128832 1072.00088,562.739832 C1072.00088,316.30527 896.605542,129.132612 687.326923,78.3349546 C708.555052,148.3701 719.541881,220.860621 719.541881,296.666768 C719.541881,439.690749 693.368481,556.285527 623.999021,670.084289 C468.22258,633.89394 338.799983,510.865949 338.799983,344.309933 Z" id="path-1"></path>
        <path d="M1893.22815,749.414699 C1884.9373,741.793924 1855.66417,721.266836 1870.02481,713.71699 C1944.00255,713.71699 1986.79681,713.71699 1998.40757,713.71699 L2069.77927,570.973592 C2008.25643,570.973592 1921.43171,570.973592 1809.30511,570.973592 C1695.35395,570.973592 1611.78952,713.71699 1743.86545,818.171694 C1762.09981,825.642453 1780.1561,856.460388 1743.86545,856.460388 L1356.06228,856.460388 L1356.06228,570.973592 L1213.31888,570.973592 L1213.31888,999.203786 L1841.01533,999.203786 C1949.88391,999.203786 2006.45966,826.977589 1893.22815,749.414699 Z" id="path-2"></path>
        <path d="M695.874065,356.858495 L670.893971,428.230194 L528.150573,428.230194 L670.893971,0 L885.009068,0 L1027.75247,428.230194 L885.009068,428.230194 L860.028973,356.858495 L695.874065,356.858495 Z M831.480294,249.800947 L777.951519,107.057549 L724.422745,249.800947 L831.480294,249.800947 Z" id="path-3"></path>
        <path d="M1220.45605,178.429248 L1220.45605,107.057549 C1252.23756,107.057549 1292.30588,107.057549 1340.66102,107.057549 C1370.71226,107.057549 1370.71226,178.429248 1340.66102,178.429248 C1292.30588,178.429248 1252.23756,178.429248 1220.45605,178.429248 Z M1391.74813,428.230194 C1339.79317,417.648346 1280.31675,376.446474 1213.31888,304.624577 L1213.31888,428.230194 L1070.57549,428.230194 L1070.57549,0 C1260.90002,0 1356.06228,0 1356.06228,0 C1535.05465,0 1559.09405,236.91997 1399.22358,261.733028 C1396.35632,266.611269 1423.1895,280.395465 1434.57115,283.985416 L1570.17738,283.985416 L1570.17738,0 L1712.92078,0 L1712.92078,178.429248 L1855.66417,6.68574874e-15 L2016.2505,0 L1837.82125,231.958022 L2069.77927,428.230194 L1855.66417,428.230194 L1712.92078,321.172646 L1712.92078,428.230194 C1696.65307,428.230194 1589.59552,428.230194 1391.74813,428.230194 Z" id="path-4"></path>
        <polygon id="path-5" points="71.371699 999.203786 71.371699 678.031141 0 678.031141 71.371699 570.973592 453.210289 570.973592 453.210289 678.031141 214.115097 678.031141 214.115097 749.40284 356.858495 749.40284 356.858495 856.460388 214.115097 856.460388 214.115097 999.203786"></polygon>
        <path d="M214.115097,107.057549 L214.115097,321.172646 C265.342475,321.172646 301.028325,321.172646 321.172646,321.172646 C392.331052,321.172646 393.377015,107.057549 321.172646,107.057549 C308.927614,107.057549 273.241764,107.057549 214.115097,107.057549 Z M71.371699,428.230194 C231.107643,428.230194 326.269909,428.230194 356.858495,428.230194 C571.771133,428.230194 572.452246,-1.0433122e-12 356.858495,-5.68434189e-14 C327.30303,7.83902939e-14 232.140765,7.83902939e-14 71.371699,-5.68434189e-14 L0,107.057549 L71.371699,107.057549 L71.371699,428.230194 Z" id="path-6"></path>
        <polygon id="path-7" points="999.203786 570.973592 999.203786 999.203786 1141.94718 999.203786 1141.94718 570.973592"></polygon>
        <path d="M642.345291,999.203786 C713.71699,999.203786 713.71699,999.203786 785.088689,999.203786 C856.460388,999.203786 927.832087,928.025083 927.832087,856.556886 C927.832087,785.088689 927.832087,785.088689 927.832087,713.71699 C927.832087,642.345291 856.460388,570.973592 785.088689,570.973592 C713.71699,570.973592 713.71699,570.973592 642.345291,570.973592 C570.973592,570.973592 499.601893,642.345291 499.601893,713.71699 C499.601893,785.088689 499.601893,785.088689 499.601893,856.556886 C499.601893,928.025083 570.973592,999.203786 642.345291,999.203786 Z M720.85416,892.146238 C792.225859,892.146238 792.225859,844.214941 792.225859,785.088689 C792.225859,725.962438 792.225859,678.031141 720.85416,678.031141 C649.482461,678.031141 649.482461,725.962438 649.482461,785.088689 C649.482461,844.214941 649.482461,892.146238 720.85416,892.146238 Z" id="path-8"></path>
    </defs>
    <g id="Page-1" stroke="none" stroke-width="1" fill="none" fill-rule="evenodd">
        <g id="StrongOriginal-+-words" transform="translate(572.000884, 572.963002) rotate(-50.000000) translate(-572.000884, -572.963002) ">
            <use fill="#000000" fill-rule="evenodd" xlink:href="#path-1"></use>
            <path stroke="#F8E71C" stroke-width="16" d="M237.65932,371.179272 C241.701439,364.779096 245.793069,359.17273 249.857042,354.488693 L235.828253,349.716764 C236.252976,356.921148 236.864899,364.076961 237.65932,371.17927 Z M578.083883,728.590439 C582.372847,729.282713 586.684829,729.908571 591.018771,730.466903 L585.438086,718.015591 C583.002979,721.575273 580.5518,725.100025 578.083877,728.590447 Z M365.017656,927.164887 C363.549324,928.051443 362.075675,928.934737 360.596665,929.814807 L369.23311,930.106611 C367.819527,929.130549 366.41438,928.149967 365.017656,927.164887 Z M365.017656,927.164887 C303.41904,883.720662 258.203699,831.526507 228.275708,772.318081 C201.276476,718.903802 187.201,660.658506 184.932612,600.372863 C182.967017,548.134343 190.007768,495.834301 204.061253,448.860432 C213.304909,417.963446 225.248752,390.82981 237.65932,371.179272 C257.97687,552.822997 397.665633,699.469443 578.083883,728.590439 C519.497153,811.450564 451.474455,874.963599 365.017656,927.164887 Z M620.174529,660.941311 C684.226153,553.842455 711.541881,441.659078 711.541881,296.666768 C711.541881,222.382584 700.885291,150.645404 679.670891,80.6555501 L675.610213,67.2586939 L689.21395,70.5606937 C795.968879,96.4730414 893.475877,157.140073 964.28726,242.049804 C1038.66246,331.232895 1080.00088,442.3646 1080.00088,562.739832 L1064.00088,562.739832 C1064.00088,369.374491 953.788927,238.593639 760.761963,185.991848 C777.422299,247.139773 781.543021,329.081659 772.214389,415.122656 C762.180039,507.672729 737.447763,598.486031 700.470599,673.298554 C792.379999,670.64337 873.739192,640.065418 930.415202,584.763733 L941.948255,595.841641 C873.854306,671.492889 779.86154,719.671055 677.248001,729.921463 C617.709501,837.426856 551.533894,914.210292 460.829295,977.147398 C541.12093,1012.87958 639.829285,1018.09648 737.734263,995.251492 C833.12844,972.992372 917.523929,925.903936 961.579247,870.69859 L974.1202,880.63445 C878.204979,1002.57833 732.00358,1075.17006 572.888082,1075.59105 C291.837443,1075.59105 64.0008838,847.754489 64.0008838,566.70385 C64.0008838,405.58418 139.392278,256.953524 265.245052,161.303274 C322.680762,117.651156 388.693546,86.651147 459.565959,70.5566105 L491.332906,63.3426006 L466.521463,84.4512047 C423.264148,121.252835 390.569328,167.14125 369.913135,220.340258 C354.701552,259.51694 346.799983,301.360886 346.799983,344.309933 C346.799983,422.277113 375.970177,493.406113 428.859529,550.655574 C477.896868,603.73547 545.3591,642.458544 620.174529,660.941311 Z"></path>
        </g>
        <g id="Group-Copy" transform="translate(1131.000000, 73.000000)">
            <g id="Path-4">
                <use fill="#000000" fill-rule="evenodd" xlink:href="#path-2"></use>
                <path stroke="#F8E71C" stroke-width="20" d="M1899.3973,741.520828 C1955.08988,779.975157 1976.06312,843.938745 1960.09271,905.891555 C1944.59379,966.015328 1897.70742,1009.20379 1841.01533,1009.20379 L1203.31888,1009.20379 L1203.31888,560.973592 L1366.06228,560.973592 L1366.06228,846.460388 L1743.86545,846.460388 C1747.3903,846.460388 1750.18501,846.117912 1752.23675,845.520419 C1753.62808,845.115243 1754.43823,844.676291 1754.80815,844.32054 C1754.85503,844.275458 1754.81757,844.344199 1754.82153,844.324704 C1754.88153,844.029371 1754.85107,843.464331 1754.63713,842.645528 C1753.22956,837.258367 1746.47667,830.048289 1740.07423,827.425161 L1738.7688,826.890313 L1737.66227,826.015197 C1704.60656,799.872473 1682.89398,770.087285 1672.81986,738.520457 C1663.48274,709.263028 1664.48472,679.308798 1674.98387,651.83266 C1695.52154,598.085879 1749.394,560.973592 1809.30511,560.973592 L2085.95961,560.973592 L2004.58791,723.71699 L1957.60381,723.71699 C1923.97086,723.71699 1921.76501,723.71699 1879.53366,723.71699 C1879.83531,724.057665 1880.15378,724.407267 1880.48871,724.765277 C1882.33051,726.733995 1884.59155,728.878212 1887.32768,731.28269 C1889.3858,733.091343 1896.87043,739.316328 1899.3973,741.520828 Z"></path>
            </g>
            <g id="Path-5">
                <use fill="#000000" fill-rule="evenodd" xlink:href="#path-3"></use>
                <path stroke="#F8E71C" stroke-width="20" d="M702.968876,366.858495 L677.988781,438.230194 L514.276314,438.230194 L663.686379,-10 L892.21666,-10 L1041.62672,438.230194 L877.914258,438.230194 L852.934163,366.858495 L702.968876,366.858495 Z M817.050289,239.800947 L777.951519,135.537561 L738.85275,239.800947 L817.050289,239.800947 Z"></path>
            </g>
            <g id="Path-8">
                <use fill="#000000" fill-rule="evenodd" xlink:href="#path-4"></use>
                <path stroke="#F8E71C" stroke-width="20" d="M1232.38127,168.429248 C1272.74503,168.429248 1277.96111,168.429248 1340.66102,168.429248 C1347.36008,168.429248 1353.19945,158.02786 1353.19945,142.743398 C1353.19945,127.458936 1347.36008,117.057549 1340.66102,117.057549 C1277.96111,117.057549 1272.74503,117.057549 1232.38127,117.057549 L1230.45605,168.429248 L1232.38127,168.429248 Z M1426.10784,269.696542 C1429.81482,271.469667 1433.40347,272.999428 1436.19797,273.985416 L1560.17738,273.985416 L1560.17738,-10 L1722.92078,-10 L1722.92078,149.921437 L1850.85793,-10 L2036.55913,-10 L1851.56712,230.489613 L2097.07871,438.230194 L1852.33084,438.230194 L1722.92078,341.172646 L1722.92078,438.230194 L1390.74011,438.230194 L1389.75237,438.029018 C1339.99469,427.894698 1284.65869,391.63627 1223.31888,329.498911 L1223.31888,438.230194 L1060.57549,438.230194 L1060.57549,-10 L1356.06228,-10 C1400.96441,-10 1439.11645,4.24924543 1467.51713,29.9979543 C1493.48562,53.5415796 1509.9765,85.718357 1514.62691,120.226046 C1519.24154,154.468265 1511.86397,188.717724 1493.37179,215.982408 C1476.76405,240.468695 1452.11478,258.189311 1421.04754,267.158399 L1426.10784,269.696542 Z"></path>
            </g>
            <g id="Path-8-Copy-2">
                <use fill="#000000" fill-rule="evenodd" xlink:href="#path-5"></use>
                <path stroke="#F8E71C" stroke-width="20" d="M61.371699,688.031141 L-18.6851709,688.031141 L66.0198614,560.973592 L463.210289,560.973592 L463.210289,688.031141 L224.115097,688.031141 L224.115097,739.40284 L366.858495,739.40284 L366.858495,866.460388 L224.115097,866.460388 L224.115097,1009.20379 L61.371699,1009.20379 L61.371699,688.031141 Z"></path>
            </g>
            <g id="Path-10">
                <use fill="#000000" fill-rule="evenodd" xlink:href="#path-6"></use>
                <path stroke="#F8E71C" stroke-width="20" d="M224.115097,311.172646 C220.950459,311.172646 217.621795,311.172646 214.115097,311.172646 L224.115097,321.172646 L224.115097,311.172646 Z M224.115097,117.057549 L224.115097,107.057549 L214.115097,117.057549 C217.603181,117.057549 220.933193,117.057549 224.115097,117.057549 Z M224.115097,117.057549 C291.14648,117.057549 292.448206,117.057549 321.172646,117.057549 C333.657602,117.057549 344.396892,126.382647 352.506181,144.582915 C360.568322,162.677365 364.99797,187.784154 364.933716,214.090672 C364.86955,240.361066 360.328189,265.497839 352.217538,283.63488 C344.077384,301.837896 333.398637,311.172646 321.172646,311.172646 C285.114012,311.172646 283.283316,311.172646 224.115097,311.172646 L224.115097,117.057549 Z M61.371699,117.057549 L-18.6851709,117.057549 L66.0198614,-10 L356.858495,-10 C411.34383,-10 455.822794,15.7901774 486.342109,61.3451235 C513.662984,102.125887 528.343793,157.028994 528.298388,214.12305 C528.253001,271.193929 513.495569,326.100538 486.148509,366.88811 C455.610101,412.435509 411.187836,438.230194 356.858495,438.230194 L61.371699,438.230194 L61.371699,117.057549 Z"></path>
            </g>
            <g id="Path-14">
                <use fill="#000000" fill-rule="evenodd" xlink:href="#path-7"></use>
                <path stroke="#F8E71C" stroke-width="20" d="M989.203786,560.973592 L1151.94718,560.973592 L1151.94718,1009.20379 L989.203786,1009.20379 L989.203786,560.973592 Z"></path>
            </g>
            <g id="Oval">
                <use fill="#000000" fill-rule="evenodd" xlink:href="#path-8"></use>
                <path stroke="#F8E71C" stroke-width="20" d="M642.345291,1009.20379 C565.405457,1009.20379 489.601893,933.502712 489.601893,856.556886 L489.601893,713.71699 C489.601893,636.822444 565.450745,560.973592 642.345291,560.973592 L785.088689,560.973592 C861.983236,560.973592 937.832087,636.822444 937.832087,713.71699 L937.832087,856.556886 C937.832087,933.502712 862.028523,1009.20379 785.088689,1009.20379 L642.345291,1009.20379 Z M720.85416,882.146238 C750.710305,882.146238 766.347188,873.706032 774.221203,856.607036 C777.830859,848.768403 780.023211,838.815646 781.148366,825.892921 C782.046443,815.578253 782.225859,806.608373 782.225859,785.088689 C782.225859,763.569006 782.046443,754.599126 781.148366,744.284458 C780.023211,731.361733 777.830859,721.408975 774.221203,713.570343 C766.347188,696.471347 750.710305,688.031141 720.85416,688.031141 C690.998015,688.031141 675.361132,696.471347 667.487118,713.570343 C663.877461,721.408975 661.685109,731.361733 660.559954,744.284458 C659.661877,754.599126 659.482461,763.569006 659.482461,785.088689 C659.482461,806.608373 659.661877,815.578253 660.559954,825.892921 C661.685109,838.815646 663.877461,848.768403 667.487118,856.607036 C675.361132,873.706032 690.998015,882.146238 720.85416,882.146238 Z"></path>
            </g>
        </g>
        <path d="M333,338.171269 C333,294.403444 341.197692,252.550294 356.141411,214.06348 C376.945867,160.482629 409.836634,114.61463 452.874145,78 C383.63256,93.7241889 320.242874,123.98002 265.779363,165.373215 C148.027499,254.866636 72,396.420365 72,555.731269 C72,826.350796 291.380473,1045.73127 562,1045.73127 C719.376293,1045.31485 858.643585,972.062509 948.359692,858 C867.463289,953.156783 747.494412,1012.95485 612,1012.95485 C542.381582,1013.03938 477.126031,997.215071 419,969 C517.723402,903.271196 601.504579,813.192831 659.235234,708 C761.289781,698.868951 852.407379,651.007455 917.221538,579 C855.698535,639.031144 767.814388,678.439209 674,678.439209 C721.606475,580.124398 748.659854,469.895453 748.659854,352.933412 C748.659854,279.700509 738.175323,209.748935 718.235684,143 C908.974116,190.427081 1050.26417,345.820217 1050.26417,551.853412 C1050.22025,331.319004 900.932213,142.946766 696.74381,83.8302864 C688.622278,81.4789462 682.240718,79.9139054 673.951418,77.9774766 C694.718135,146.49035 705.466156,217.405229 705.466156,291.563667 C705.466156,431.478903 666.861657,561.586386 599,672.911637 C446.609489,637.507916 333,501.107051 333,338.171269 Z" id="Original" stroke="#979797"></path>
    </g>
</svg>