<?xml version="1.0" encoding="UTF-8"?>
<svg width="3100px" height="1100px" viewBox="0 0 3100 1100" version="1.1" xmlns="http://www.w3.org/2000/svg" xmlns:xlink="http://www.w3.org/1999/xlink">
    <!-- Generator: Sketch 45.2 (43514) - http://www.bohemiancoding.com/sketch -->
    <title>Logo-darkfoils</title>
    <desc>Created with Sketch.</desc>
    <defs></defs>
    <g id="Page-1" stroke="none" stroke-width="1" fill="none" fill-rule="evenodd">
        <path d="M219.025138,343.681426 C177.555344,410.906705 153.628509,490.104269 153.628509,574.890246 C153.628509,718.00675 221.802172,845.200441 327.446454,925.768276 M219.025138,343.681426 C230.148595,532.36326 374.705406,685.024022 559.682705,708.854255 M327.446454,925.768276 C419.367511,871.175045 499.286263,796.705006 559.682705,708.854255 M545.628509,1047.25025 C702.004803,1047.25025 841.272094,973.997901 930.988201,859.935392 M1035.62851,557.250246 C1035.62851,334.009919 886.340473,145.637682 682.152071,86.5212017 C674.030539,84.1698616 665.822153,82.0230075 657.532852,80.0865787 M436.182654,79.5189773 C367.26107,95.2431662 303.871383,125.498997 249.407872,166.892192 C131.656009,256.385613 55.6285092,397.939343 55.6285092,557.250246 C55.6285092,827.869773 275.008982,1047.25025 545.628509,1047.25025 M594.628509,1015.89025 C730.122921,1015.89025 850.091798,956.092174 930.988201,859.935392 M1035.62851,557.250246 C1035.62851,351.21705 894.338455,195.823915 703.364339,147.396834 M402.29541,971.850862 C460.421442,1000.06593 525.676992,1015.89025 594.628509,1015.89025 M643.530644,710.702282 C745.820425,702.118002 836.938024,654.256505 901.752182,582.249051 M658.128655,682.68826 C751.943043,682.68826 839.82719,643.280195 901.752182,582.249051 M436.182654,79.5189773 C393.145143,116.133607 360.254376,162.001606 339.44992,215.582458 C324.506201,254.069271 316.308509,295.922422 316.308509,339.690246 C316.308509,502.626029 429.917998,639.026893 582.242353,673.998216 M402.29541,971.850862 C502.018812,905.973478 585.799989,815.895113 643.530644,710.702282 M658.128655,682.68826 C706.73513,584.521231 733.788509,474.292287 733.788509,357.330246 C733.788509,284.097343 723.303978,214.145769 703.364339,147.396834 M582.242353,673.998216 C650.10401,562.672965 688.708509,432.565482 688.708509,292.650246 C688.708509,218.491808 677.960488,147.576929 657.532852,80.0865787" id="Combined-Shape" stroke="#979797" transform="translate(545.628509, 563.384612) rotate(-50.000000) translate(-545.628509, -563.384612) "></path>
        <path d="M855.571092,183.894205 C805.460893,156.939842 612.715758,25.8156962 328.658539,175.199255 C445.17886,223.194553 603.067457,307.086227 706.645399,543.806413 C779.212492,457.769024 791.945595,366.019451 789.67223,301.840127 C803.077987,372.078467 803.229565,505.004795 725.395301,598.569173 C743.677506,646.361984 784.455659,757.59984 767.350511,920.727957 C882.783405,864.311449 1044.72369,689.920373 1020.96349,457.769024 C1039.41434,543.806413 1078.0609,710.287424 910.058892,892.284401 C739.400851,1077.15867 463.78354,1102.51847 255.240137,959.888705 C41.2488559,813.532954 1.99355282,513.665064 104.418304,335.436623 C104.418304,570.692231 396.881806,799.312995 650.378855,598.569173 C626.011899,528.388218 546.558873,304.07848 247.677385,167.046355 C329.513754,97.7551142 603.656419,-20.2754492 855.571092,183.894205 Z M167.695013,673.514516 C237.955778,893.547784 488.009136,1018.34641 684.162695,956.835447 C699.612707,847.757657 693.773746,750.941828 666.247136,645.575317 C584.60137,726.216668 376.887101,819.599193 167.695013,673.514516 Z" id="Combined-Shape" stroke="#F8E71C" stroke-width="20" fill="#000000"></path>
        <text id="Dark-foils" stroke="#F8E71C" stroke-width="2" font-family="StarJediLogoMonoLine, Star Jedi Logo MonoLine" font-size="600" font-weight="normal" line-spacing="550" fill="#000000">
            <tspan x="1237" y="735">Dark</tspan>
            <tspan x="1255.89648" y="1285">foils</tspan>
        </text>
    </g>
</svg>